<svg version="1.1" xmlns="http://www.w3.org/2000/svg" viewBox="0 0 260.666748046875 264.6666717529297" width="260.666748046875" height="264.6666717529297" filter="invert(93%) hue-rotate(180deg)" class="excalidraw-svg">
  <!-- svg-source:excalidraw -->
  
  <defs>
    <style class="style-fonts">
      @font-face {
        font-family: "Virgil";
        src: url("https://excalidraw.com/Virgil.woff2");
      }
      @font-face {
        font-family: "Cascadia";
        src: url("https://excalidraw.com/Cascadia.woff2");
      }
      @font-face {
        font-family: "Assistant";
        src: url("https://excalidraw.com/Assistant-Regular.woff2");
      }
    </style>
    
  </defs>
  <g stroke-linecap="round" transform="translate(10 10) rotate(0 120.3333740234375 122.33333587646486)"><path d="M36.44 35.65 C36.44 35.65, 36.44 35.65, 36.44 35.65 M36.44 35.65 C36.44 35.65, 36.44 35.65, 36.44 35.65 M12.74 80.03 C19.95 57.87, 42.09 41.82, 60.34 13.93 M9.01 80.98 C21.09 64.6, 33.49 50.85, 64.67 15.95 M6.77 94.08 C32.99 58.98, 64.28 28.98, 79.41 8.11 M6.05 95.38 C36.19 61.23, 63.23 28.93, 80.6 8.87 M0.93 112.85 C28 84.98, 58.68 52.97, 97.37 4.45 M2.71 112.05 C27.88 83.48, 52.42 52.19, 92.64 4.57 M4.3 126.65 C36.84 90.89, 62.47 54.11, 108.01 4.68 M3.42 123.28 C28.88 89.58, 61.37 55.6, 108.57 0.93 M0.33 135.81 C43.76 85.07, 91.42 37.28, 114.72 5.33 M4.86 133.84 C39.03 96.25, 73.14 55.86, 116.78 1.96 M7.21 148.69 C42.67 106.08, 78.94 59.56, 130.81 -0.86 M4.45 144.83 C29.92 115.25, 60.64 81.57, 126.71 1.08 M7.69 151.96 C48.67 108.74, 90.03 59.27, 140.1 3.61 M6.4 153.7 C55.08 98.85, 100.03 43.46, 137.77 3.52 M9.05 166.04 C41.03 127.34, 78.29 84.11, 148.38 5.99 M9.11 164.66 C44.03 124.97, 74.88 85.95, 149.53 5.3 M14 169.56 C44.04 133.13, 74.03 102.17, 157.98 7.74 M13.74 171.81 C49.87 126.21, 90.31 79.57, 156.07 7.25 M15.4 182.75 C59.15 131.72, 102.6 88.06, 166 7.45 M17 182.1 C77.1 116.23, 135.61 48.01, 163.15 11.51 M18.57 191.66 C60.4 135.25, 108.59 84.23, 172.36 17.02 M19.92 190.7 C55.69 144.95, 90.69 104.5, 171.95 15.28 M24.84 195.56 C88.03 122.99, 145.72 54.89, 178.18 19.35 M22.04 195.19 C56.09 156.61, 92.32 117.99, 177.95 17.91 M26.4 202.55 C66.27 156.88, 105.29 113.63, 187.95 23.75 M29.5 203.24 C84.9 133.8, 142.42 70.49, 186.87 23.18 M36.64 208.91 C93.96 147.13, 149.3 77.09, 189.29 28.93 M35.26 206.84 C81.3 154.68, 129.37 99.65, 190.95 27.96 M39.64 212.55 C90.86 157.14, 134.09 106.67, 198.05 34.36 M42.42 213.96 C94.72 154.52, 145.55 92.58, 197.46 31.58 M50.1 216.8 C105.27 154.61, 157.75 93.89, 201.27 41.17 M47.26 217.18 C90.68 169.46, 132.54 121.23, 205.27 38.33 M54.21 226.04 C100.81 169.52, 146.46 116.77, 208.99 43.17 M53.81 224.28 C85.85 185.14, 114.24 149.83, 209.84 43.37 M58.78 226.4 C111.16 167.61, 167.75 103.16, 217.22 47.83 M59.54 227.16 C93.77 191.32, 126.52 154.6, 216.59 48.61 M68.39 232.8 C104.86 178.73, 152.62 130.06, 218.94 54.79 M69.4 230.31 C120.58 168.76, 172.21 110.39, 218.45 56.08 M76.86 232.92 C117.37 185.5, 160.72 131.84, 226.73 63.31 M77.34 233.41 C112.33 190.97, 149.94 145.83, 221.9 63.63 M80.24 238.46 C129.29 185.68, 172.98 133.28, 229.24 72.38 M82.89 236.73 C122.8 190.73, 163.54 145.38, 227.42 73.37 M92.09 239.67 C145.11 180.97, 194.69 121.47, 229.46 79.14 M89.19 241.72 C121.55 203.55, 152.15 169.45, 230.28 81.49 M98.45 239.08 C155.15 186.7, 201.86 126.03, 230.36 90.74 M99.92 241.49 C147.1 189.33, 195.22 136.24, 233.6 87.99 M106.54 242.39 C151.83 195.46, 192.96 149.08, 236.16 98.54 M108.79 244.69 C151.66 193.84, 196.26 144.38, 235.66 97.31 M120.82 244.66 C162.1 188.26, 210.09 136.75, 239.74 107.85 M120.1 244.97 C161.93 193.55, 205.93 143.83, 239.31 107.76 M129.73 241.65 C170.15 204.05, 210.57 159.09, 239.54 116.68 M131.68 243.39 C165.56 207.41, 195.2 169.86, 240.01 119.45 M142.28 240.03 C170.73 207.66, 202.3 179.3, 244.75 132.13 M142.4 243.26 C180.75 201.75, 213.66 159.59, 241.31 130.44 M153.15 240.18 C184.83 205.78, 217.07 169.79, 237.45 147.8 M157.51 239.27 C181.43 210.58, 201.59 185.51, 237.53 143.78 M167.29 239.76 C192.07 209.12, 218.85 179.51, 235.83 163.77 M169.41 234.77 C186.57 214.33, 204.78 196.13, 233.05 161.28 M198.79 211.55 C201.27 205.78, 214.89 201.66, 222.18 191.86 M196.64 213.57 C204.62 209.29, 212.09 201.42, 218.5 190.75 M20.65 194.21 C20.65 194.21, 20.65 194.21, 20.65 194.21 M20.65 194.21 C20.65 194.21, 20.65 194.21, 20.65 194.21 M81.63 233.54 C66.83 221.04, 54.54 210.79, 16.72 179.61 M81 235.69 C64.12 222.42, 48.79 212.68, 15.89 179.12 M98.09 244.52 C68.56 213.82, 35.07 181.15, 6.14 158.6 M101.36 241.7 C62.89 208.72, 26.03 178.69, 8 160.96 M114.27 243.56 C81.26 211.55, 46.54 188.17, 4.33 152.36 M111.42 243.02 C86.51 219.48, 60.4 198.67, 4.03 147.71 M129.32 246.24 C83.41 205.6, 30.57 163.13, 6.31 137.78 M128.12 243.2 C97.8 217.21, 64.28 191, 2.06 137.12 M133.8 240.32 C86.78 198.92, 33.61 148.69, 6.09 129.04 M136.38 244.08 C95.75 207.24, 54.25 171.49, 4.62 127.48 M143.31 240.81 C109.12 210.06, 74.05 172.85, -2.08 113.54 M148.59 240.99 C103.45 202.75, 59.39 162.21, 1.81 113.66 M153.5 235.57 C105.14 191.11, 49.92 144.79, 0.52 105.6 M157.1 236.36 C119.64 204.25, 80.36 171.75, 1.32 104.98 M165.29 233.44 C131.85 206.65, 100.68 181.26, 2.76 93.58 M167.21 236.12 C121.68 200.31, 76.04 159.57, 4.21 95.84 M178.18 231.6 C119.21 184.85, 60.59 131.31, 9.76 88.47 M173.97 233.75 C138.87 198.72, 97.87 161.93, 5.65 85.22 M179.66 226.39 C135.25 185.5, 91.56 146.05, 10.47 76.98 M179.83 227.83 C143.44 194.84, 108.27 160.97, 8.37 79.05 M189 220.23 C130.15 169.06, 70.67 117.64, 14.27 70.85 M187.82 221.96 C134.8 174.72, 82.19 130.45, 11.87 70.28 M194.18 220.12 C128.12 160.06, 68.46 106.08, 18.06 65.82 M195.19 216.68 C155.98 185.2, 117.39 150.47, 15.76 63.47 M199.76 215.65 C155.37 175.67, 114.35 139.44, 20.09 54.65 M201.8 211.3 C158.94 177.41, 118.23 140.56, 21.32 56.78 M204.33 209.11 C170.86 171.14, 125.11 135.69, 26.73 52.07 M206.19 206.95 C143.34 150.5, 83.03 97.88, 26.49 50.59 M209.46 203.68 C157.97 152.34, 98.62 104.02, 30.13 44.97 M212.62 201.89 C169.26 163.84, 126.43 129.22, 31.92 44.64 M218.45 193.1 C163.94 152.65, 114.34 110.23, 35.16 37.6 M214.74 194.5 C162.82 149.56, 109.84 103.86, 35.99 36.49 M216.99 188.76 C157.82 133.51, 91.77 79.18, 40.13 31.22 M221.16 187.18 C165.77 139.87, 113.84 91.91, 40.47 31.3 M227.49 178.72 C158.02 119.3, 88.05 61.82, 49.47 29.21 M224.58 182.13 C175.82 133.77, 125.41 92.24, 48.1 27.08 M226.48 171.54 C169.5 124.78, 111.79 75.95, 51.38 19.93 M227.78 175.16 C191.38 138.2, 151.08 107.1, 55.26 21.08 M228.3 164.55 C186.53 132.96, 141.2 93.47, 61.42 18.88 M231.63 164.2 C187.48 129.48, 145.9 92.81, 59.96 18.39 M233.71 157.44 C170.36 104.55, 110 52.09, 70.01 15.03 M235.57 156.47 C170.51 99.97, 108.3 46.25, 68.48 12.06 M235.54 151.66 C198.84 114.55, 154.23 78.71, 73.77 7.47 M234.95 147.49 C174.96 94.86, 115.65 43.38, 77.66 10.21 M242.75 144.16 C191.15 99.52, 136.13 53.45, 85.64 8.26 M239.83 139.02 C185.47 91.12, 127.08 41.57, 85.73 7.15 M241.46 129.85 C211.19 105.77, 179.4 76.65, 95.71 8.13 M241.36 131.67 C184.26 84.73, 129.92 35.6, 97.29 5.04 M241.3 119.16 C206.5 94.13, 173.49 62.46, 103.32 -0.89 M237.7 119.72 C191.64 75.07, 141.59 31.74, 103.44 3.8 M237.87 111.28 C212.07 84.51, 190.63 66.04, 111.78 0.13 M239.63 109.07 C204 78.45, 167.83 48.99, 115.58 -0.81 M237.56 95.95 C208.88 70.83, 182.14 42.65, 126.43 5.53 M234.93 93.7 C196.99 57.77, 157.57 26.85, 129.84 0.52 M227.53 77.08 C199.3 52.57, 166.51 22.51, 144.85 6.41 M231.8 78.65 C196.18 50.7, 161.77 18.89, 143.13 3.98 M227.16 66.58 C197.49 43.2, 179.79 27.4, 157.88 4.39 M224.29 62.17 C202.92 44.54, 181.57 28.54, 160.13 6.5" stroke="#e03131" stroke-width="1" fill="none"/><path d="M152.31 4.22 C164.92 5.56, 176.1 13.64, 186.85 21.33 C197.61 29.01, 208.82 38.63, 216.83 50.34 C224.83 62.04, 230.72 77.95, 234.89 91.58 C239.05 105.2, 242.82 118.34, 241.81 132.09 C240.81 145.84, 234.5 161.54, 228.87 174.09 C223.23 186.64, 217.17 197.42, 207.99 207.42 C198.82 217.41, 186.25 227.87, 173.8 234.04 C161.35 240.21, 147 243.14, 133.3 244.43 C119.6 245.73, 104.91 245.52, 91.59 241.8 C78.26 238.08, 65.22 230.09, 53.35 222.13 C41.49 214.16, 28.42 205.31, 20.4 193.99 C12.37 182.67, 8.5 168, 5.21 154.21 C1.93 140.41, -0.1 124.85, 0.68 111.23 C1.47 97.61, 3.98 85.09, 9.93 72.5 C15.88 59.92, 26.36 45.78, 36.39 35.71 C46.41 25.63, 57.8 17.72, 70.08 12.03 C82.37 6.33, 93.06 1.46, 110.11 1.54 C127.17 1.63, 159.48 8.47, 172.42 12.53 C185.36 16.6, 188.7 24.41, 187.77 25.95 M168.86 9.82 C181.75 14.26, 196.92 27.35, 207.16 37.16 C217.4 46.98, 225.19 56.28, 230.3 68.69 C235.41 81.1, 236.47 97.44, 237.8 111.62 C239.13 125.79, 241.34 140.47, 238.28 153.74 C235.22 167.01, 227.51 180.11, 219.42 191.21 C211.33 202.32, 200.62 211.99, 189.74 220.36 C178.85 228.72, 166.87 237.44, 154.11 241.4 C141.36 245.36, 127.44 245.13, 113.2 244.11 C98.97 243.08, 81.81 240.63, 68.7 235.25 C55.59 229.87, 43.97 221.68, 34.53 211.81 C25.1 201.95, 17.59 189.31, 12.1 176.07 C6.6 162.84, 3.35 146.75, 1.56 132.39 C-0.24 118.04, -1.7 103.13, 1.33 89.94 C4.35 76.74, 11.46 64.09, 19.69 53.23 C27.92 42.37, 39.61 33.38, 50.69 24.78 C61.77 16.17, 73.29 5.39, 86.19 1.62 C99.09 -2.15, 114.01 0.93, 128.1 2.16 C142.2 3.4, 163.45 6.68, 170.76 9.03 C178.06 11.39, 172.63 14.02, 171.93 16.32" stroke="#e03131" stroke-width="2" fill="none"/></g></svg>